Coordinates
version=1
nRows=7
nColumns=46
inDegrees=yes

Units are S.I. units (second, meters, Newtons, ...)
Angles are in degrees.

endheader
time	pelvis_tilt	pelvis_list	pelvis_rotation	pelvis_tx	pelvis_ty	pelvis_tz	bb_angle	bb_tx	bb_ty	bb_tz	hip_flexion_r	hip_adduction_r	hip_rotation_r	knee_angle_r	knee_angle_r_beta	ankle_angle_r	subtalar_angle_r	mtp_angle_r	crank_angle_r	hip_flexion_l	hip_adduction_l	hip_rotation_l	knee_angle_l	knee_angle_l_beta	ankle_angle_l	subtalar_angle_l	mtp_angle_l	crank_angle_l	lumbar_extension	lumbar_bending	lumbar_rotation	arm_flex_r	arm_add_r	arm_rot_r	elbow_flex_r	pro_sup_r	wrist_flex_r	wrist_dev_r	arm_flex_l	arm_add_l	arm_rot_l	elbow_flex_l	pro_sup_l	wrist_flex_l	wrist_dev_l
      2.50000000	    -30.45119212	      6.70308750	     14.18658597	      0.21738058	      1.05772087	     -0.19404298	      0.00000000	      0.50000000	      0.00000000	      0.25000000	     35.69880212	    -16.19844577	    -11.38894362	     22.10763054	      0.38585094	    -36.23679601	     -7.21742164	      0.00000000	      0.00000000	     85.79689314	     -0.21914576	     -2.83227754	     99.50660573	      1.73671790	     23.20413488	      6.21479024	      0.00000000	      0.00000000	    -45.63074724	     -5.92167632	    -12.27371465	     60.35116510	    -14.11958059	     27.18001691	     58.25863998	     46.38903973	      0.00000000	      0.00000000	     66.69374946	     -8.80897347	     23.74144530	     64.86627676	     47.10378897	      0.00000000	      0.00000000
      2.50500000	    -31.05869382	      6.27695973	     14.39821210	      0.21746942	      1.06152187	     -0.19489433	      0.00000000	      0.50000000	      0.00000000	      0.25000000	     35.44238919	    -16.02618275	    -12.10677897	     20.85487634	      0.36398626	    -36.95576084	     -6.22651936	      0.00000000	      0.00000000	     85.72657164	      0.14962544	     -2.70902172	     97.79497839	      1.70684436	     23.50136477	      5.97079677	      0.00000000	      0.00000000	    -45.46421661	     -5.77233695	    -12.26322135	     60.55870335	    -13.99575330	     26.85474259	     57.49825049	     46.28388482	      0.00000000	      0.00000000	     66.88818530	     -8.47028443	     23.77723700	     64.85947773	     47.12159232	      0.00000000	      0.00000000
      2.51000000	    -31.83589629	      5.91101358	     14.58311740	      0.21707122	      1.06485837	     -0.19574484	      0.00000000	      0.50000000	      0.00000000	      0.25000000	     35.50935533	    -15.89269527	    -12.50265882	     19.92795030	      0.34780835	    -36.96345149	     -5.58159812	      0.00000000	      0.00000000	     85.86158428	      0.58998739	     -2.55131310	     96.08279613	      1.67696115	     23.65680135	      5.77701231	      0.00000000	      0.00000000	    -45.18254828	     -5.76847367	    -12.35168777	     60.75397779	    -14.05372591	     26.68882693	     57.17689520	     46.23459255	      0.00000000	      0.00000000	     67.20561561	     -8.18042595	     23.84081210	     64.94383716	     47.14590720	      0.00000000	      0.00000000
      2.51500000	    -32.40286423	      5.57937733	     14.77319075	      0.21699621	      1.06836239	     -0.19667310	      0.00000000	      0.50000000	      0.00000000	      0.25000000	     35.29172969	    -15.80255853	    -13.07426218	     18.98968726	      0.33143257	    -36.76535217	     -4.27839501	      0.00000000	      0.00000000	     85.77588059	      1.00443798	     -2.44406225	     94.46627816	      1.64874759	     23.60534495	      5.17991861	      0.00000000	      0.00000000	    -45.03929574	     -5.69282480	    -12.28695820	     60.96400944	    -14.04025134	     26.37694785	     56.33244701	     46.11939392	      0.00000000	      0.00000000	     67.45061592	     -7.75026196	     24.02187180	     64.76164322	     47.14615012	      0.00000000	      0.00000000
      2.52000000	    -33.11202059	      5.21765242	     14.90050418	      0.21672379	      1.07150029	     -0.19743271	      0.00000000	      0.50000000	      0.00000000	      0.25000000	     35.38083760	    -15.61036980	    -13.28079492	     18.39922187	      0.32112700	    -36.38105483	     -3.96424420	      0.00000000	      0.00000000	     85.81212451	      1.36339864	     -2.25969590	     92.79903627	      1.61964873	     23.93506025	      5.08295971	      0.00000000	      0.00000000	    -44.75793910	     -5.63006302	    -12.28975665	     61.15145645	    -14.07349556	     26.26360125	     56.07560646	     46.08330534	      0.00000000	      0.00000000	     67.72516106	     -7.55051920	     24.09393578	     64.76237228	     47.15611830	      0.00000000	      0.00000000
      2.52500000	    -33.80104101	      4.82237840	     15.06672509	      0.21647488	      1.07457475	     -0.19838228	      0.00000000	      0.50000000	      0.00000000	      0.25000000	     35.44733345	    -15.42379009	    -13.57190637	     17.88317317	      0.31212025	    -35.84743968	     -3.53494135	      0.00000000	      0.00000000	     85.83762433	      1.80447028	     -1.99854754	     91.09778220	      1.58995624	     24.10942764	      4.86137174	      0.00000000	      0.00000000	    -44.46202159	     -5.56956754	    -12.29983936	     61.29733358	    -14.19100117	     26.10027582	     55.66824910	     46.02307393	      0.00000000	      0.00000000	     67.95333049	     -7.24458363	     24.25596675	     64.71567084	     47.16843311	      0.00000000	      0.00000000
      2.53000000	    -34.45103615	      4.43306008	     15.16015086	      0.21623899	      1.07744778	     -0.19940207	      0.00000000	      0.50000000	      0.00000000	      0.25000000	     35.55604699	    -15.20224854	    -13.71088653	     17.50575909	      0.30553313	    -35.18185817	     -3.04308655	      0.00000000	      0.00000000	     85.85225198	      2.15473369	     -1.79769815	     89.44341891	      1.56108215	     24.14726130	      4.46975696	      0.00000000	      0.00000000	    -44.16657610	     -5.39993135	    -12.15164721	     61.46113300	    -14.26985672	     25.96649374	     55.33482892	     45.97362223	      0.00000000	      0.00000000	     68.16742231	     -7.01268287	     24.38250333	     64.66711897	     47.17603746	      0.00000000	      0.00000000
